<?xml version="1.0" encoding="utf-8" standalone="no"?>
<!DOCTYPE svg PUBLIC "-//W3C//DTD SVG 1.1//EN"
  "http://www.w3.org/Graphics/SVG/1.1/DTD/svg11.dtd">
<!-- Created with matplotlib (https://matplotlib.org/) -->
<svg height="262.474375pt" version="1.1" viewBox="0 0 394.074219 262.474375" width="394.074219pt" xmlns="http://www.w3.org/2000/svg" xmlns:xlink="http://www.w3.org/1999/xlink">
 <metadata>
  <rdf:RDF xmlns:cc="http://creativecommons.org/ns#" xmlns:dc="http://purl.org/dc/elements/1.1/" xmlns:rdf="http://www.w3.org/1999/02/22-rdf-syntax-ns#">
   <cc:Work>
    <dc:type rdf:resource="http://purl.org/dc/dcmitype/StillImage"/>
    <dc:date>2022-11-27T21:24:15.358024</dc:date>
    <dc:format>image/svg+xml</dc:format>
    <dc:creator>
     <cc:Agent>
      <dc:title>Matplotlib v3.3.4, https://matplotlib.org/</dc:title>
     </cc:Agent>
    </dc:creator>
   </cc:Work>
  </rdf:RDF>
 </metadata>
 <defs>
  <style type="text/css">*{stroke-linecap:butt;stroke-linejoin:round;}</style>
 </defs>
 <g id="figure_1">
  <g id="patch_1">
   <path d="M 0 262.474375 
L 394.074219 262.474375 
L 394.074219 0 
L 0 0 
z
" style="fill:none;"/>
  </g>
  <g id="axes_1">
   <g id="patch_2">
    <path d="M 43.78125 224.64 
L 378.58125 224.64 
L 378.58125 7.2 
L 43.78125 7.2 
z
" style="fill:#ffffff;"/>
   </g>
   <g id="PolyCollection_1">
    <defs>
     <path d="M 100.204806 -90.656358 
L 98.957694 -90.656358 
L 98.821831 -92.148386 
L 98.66413 -93.640413 
L 98.482904 -95.13244 
L 98.276725 -96.624468 
L 98.044508 -98.116495 
L 97.785594 -99.608522 
L 97.49982 -101.10055 
L 97.187583 -102.592577 
L 96.849878 -104.084604 
L 96.48831 -105.576632 
L 96.105083 -107.068659 
L 95.702954 -108.560686 
L 95.285147 -110.052713 
L 94.855243 -111.544741 
L 94.417034 -113.036768 
L 93.974347 -114.528795 
L 93.530854 -116.020823 
L 93.089872 -117.51285 
L 92.654153 -119.004877 
L 92.225697 -120.496905 
L 91.80558 -121.988932 
L 91.393825 -123.480959 
L 90.989316 -124.972987 
L 90.589767 -126.465014 
L 90.191766 -127.957041 
L 89.790876 -129.449069 
L 89.381814 -130.941096 
L 88.958697 -132.433123 
L 88.515341 -133.925151 
L 88.045615 -135.417178 
L 87.543818 -136.909205 
L 87.005071 -138.401233 
L 86.425692 -139.89326 
L 85.803543 -141.385287 
L 85.138306 -142.877314 
L 84.431688 -144.369342 
L 83.687516 -145.861369 
L 82.911727 -147.353396 
L 82.112233 -148.845424 
L 81.298667 -150.337451 
L 80.482027 -151.829478 
L 79.674219 -153.321506 
L 78.887541 -154.813533 
L 78.13413 -156.30556 
L 77.425409 -157.797588 
L 76.771568 -159.289615 
L 76.181121 -160.781642 
L 75.66056 -162.27367 
L 75.214137 -163.765697 
L 74.843792 -165.257724 
L 74.549217 -166.749752 
L 74.328068 -168.241779 
L 74.176302 -169.733806 
L 74.0886 -171.225834 
L 74.058874 -172.717861 
L 74.08078 -174.209888 
L 74.148234 -175.701915 
L 74.255873 -177.193943 
L 74.399435 -178.68597 
L 74.576031 -180.177997 
L 74.78429 -181.670025 
L 75.024384 -183.162052 
L 75.297915 -184.654079 
L 75.607694 -186.146107 
L 75.957432 -187.638134 
L 76.351354 -189.130161 
L 76.793792 -190.622189 
L 77.288761 -192.114216 
L 77.839568 -193.606243 
L 78.448467 -195.098271 
L 79.116382 -196.590298 
L 79.84272 -198.082325 
L 80.625269 -199.574353 
L 81.460195 -201.06638 
L 82.342115 -202.558407 
L 83.264258 -204.050435 
L 84.218681 -205.542462 
L 85.196537 -207.034489 
L 86.188371 -208.526516 
L 87.184428 -210.018544 
L 88.174959 -211.510571 
L 89.150514 -213.002598 
L 90.102202 -214.494626 
L 91.021916 -215.986653 
L 91.902517 -217.47868 
L 92.737962 -218.970708 
L 93.523396 -220.462735 
L 94.255192 -221.954762 
L 94.930937 -223.44679 
L 95.5494 -224.938817 
L 96.110443 -226.430844 
L 96.614921 -227.922872 
L 97.064554 -229.414899 
L 97.46179 -230.906926 
L 97.809655 -232.398954 
L 98.11161 -233.890981 
L 98.371408 -235.383008 
L 98.592966 -236.875036 
L 98.780243 -238.367063 
L 100.382257 -238.367063 
L 100.382257 -238.367063 
L 100.569534 -236.875036 
L 100.791092 -235.383008 
L 101.05089 -233.890981 
L 101.352845 -232.398954 
L 101.70071 -230.906926 
L 102.097946 -229.414899 
L 102.547579 -227.922872 
L 103.052057 -226.430844 
L 103.6131 -224.938817 
L 104.231563 -223.44679 
L 104.907308 -221.954762 
L 105.639104 -220.462735 
L 106.424538 -218.970708 
L 107.259983 -217.47868 
L 108.140584 -215.986653 
L 109.060298 -214.494626 
L 110.011986 -213.002598 
L 110.987541 -211.510571 
L 111.978072 -210.018544 
L 112.974129 -208.526516 
L 113.965963 -207.034489 
L 114.943819 -205.542462 
L 115.898242 -204.050435 
L 116.820385 -202.558407 
L 117.702305 -201.06638 
L 118.537231 -199.574353 
L 119.31978 -198.082325 
L 120.046118 -196.590298 
L 120.714033 -195.098271 
L 121.322932 -193.606243 
L 121.873739 -192.114216 
L 122.368708 -190.622189 
L 122.811146 -189.130161 
L 123.205068 -187.638134 
L 123.554806 -186.146107 
L 123.864585 -184.654079 
L 124.138116 -183.162052 
L 124.37821 -181.670025 
L 124.586469 -180.177997 
L 124.763065 -178.68597 
L 124.906627 -177.193943 
L 125.014266 -175.701915 
L 125.08172 -174.209888 
L 125.103626 -172.717861 
L 125.0739 -171.225834 
L 124.986198 -169.733806 
L 124.834432 -168.241779 
L 124.613283 -166.749752 
L 124.318708 -165.257724 
L 123.948363 -163.765697 
L 123.50194 -162.27367 
L 122.981379 -160.781642 
L 122.390932 -159.289615 
L 121.737091 -157.797588 
L 121.02837 -156.30556 
L 120.274959 -154.813533 
L 119.488281 -153.321506 
L 118.680473 -151.829478 
L 117.863833 -150.337451 
L 117.050267 -148.845424 
L 116.250773 -147.353396 
L 115.474984 -145.861369 
L 114.730812 -144.369342 
L 114.024194 -142.877314 
L 113.358957 -141.385287 
L 112.736808 -139.89326 
L 112.157429 -138.401233 
L 111.618682 -136.909205 
L 111.116885 -135.417178 
L 110.647159 -133.925151 
L 110.203803 -132.433123 
L 109.780686 -130.941096 
L 109.371624 -129.449069 
L 108.970734 -127.957041 
L 108.572733 -126.465014 
L 108.173184 -124.972987 
L 107.768675 -123.480959 
L 107.35692 -121.988932 
L 106.936803 -120.496905 
L 106.508347 -119.004877 
L 106.072628 -117.51285 
L 105.631646 -116.020823 
L 105.188153 -114.528795 
L 104.745466 -113.036768 
L 104.307257 -111.544741 
L 103.877353 -110.052713 
L 103.459546 -108.560686 
L 103.057417 -107.068659 
L 102.67419 -105.576632 
L 102.312622 -104.084604 
L 101.974917 -102.592577 
L 101.66268 -101.10055 
L 101.376906 -99.608522 
L 101.117992 -98.116495 
L 100.885775 -96.624468 
L 100.679596 -95.13244 
L 100.49837 -93.640413 
L 100.340669 -92.148386 
L 100.204806 -90.656358 
z
" id="m4fd401161f" style="stroke:#6f6f6f;stroke-width:1.5;"/>
    </defs>
    <g clip-path="url(#p6ff5971ae9)">
     <use style="fill:#abc9ea;stroke:#6f6f6f;stroke-width:1.5;" x="0" xlink:href="#m4fd401161f" y="262.474375"/>
    </g>
   </g>
   <g id="PolyCollection_2">
    <defs>
     <path d="M 211.591683 -57.805531 
L 210.770817 -57.805531 
L 210.675916 -59.700331 
L 210.56468 -61.595131 
L 210.435678 -63.489932 
L 210.287657 -65.384732 
L 210.119612 -67.279532 
L 209.930846 -69.174332 
L 209.721036 -71.069132 
L 209.490272 -72.963932 
L 209.239084 -74.858732 
L 208.968452 -76.753532 
L 208.679778 -78.648332 
L 208.374839 -80.543132 
L 208.055712 -82.437932 
L 207.724661 -84.332732 
L 207.384021 -86.227532 
L 207.036048 -88.122333 
L 206.682773 -90.017133 
L 206.325858 -91.911933 
L 205.966466 -93.806733 
L 205.605158 -95.701533 
L 205.241828 -97.596333 
L 204.875686 -99.491133 
L 204.505292 -101.385933 
L 204.128647 -103.280733 
L 203.74334 -105.175533 
L 203.346738 -107.070333 
L 202.936225 -108.965133 
L 202.509455 -110.859933 
L 202.064619 -112.754733 
L 201.600698 -114.649534 
L 201.117679 -116.544334 
L 200.616725 -118.439134 
L 200.100275 -120.333934 
L 199.572055 -122.228734 
L 199.037006 -124.123534 
L 198.501118 -126.018334 
L 197.971176 -127.913134 
L 197.454433 -129.807934 
L 196.958227 -131.702734 
L 196.489568 -133.597534 
L 196.054719 -135.492334 
L 195.658802 -137.387134 
L 195.305455 -139.281935 
L 194.996582 -141.176735 
L 194.732187 -143.071535 
L 194.510342 -144.966335 
L 194.32727 -146.861135 
L 194.177558 -148.755935 
L 194.054481 -150.650735 
L 193.950425 -152.545535 
L 193.857373 -154.440335 
L 193.767443 -156.335135 
L 193.673425 -158.229935 
L 193.569289 -160.124735 
L 193.450636 -162.019535 
L 193.315055 -163.914335 
L 193.162371 -165.809136 
L 192.994756 -167.703936 
L 192.816712 -169.598736 
L 192.634913 -171.493536 
L 192.457921 -173.388336 
L 192.295795 -175.283136 
L 192.15961 -177.177936 
L 192.06093 -179.072736 
L 192.011241 -180.967536 
L 192.021393 -182.862336 
L 192.10108 -184.757136 
L 192.258378 -186.651936 
L 192.499361 -188.546736 
L 192.827829 -190.441536 
L 193.245129 -192.336337 
L 193.750107 -194.231137 
L 194.339157 -196.125937 
L 195.006383 -198.020737 
L 195.743846 -199.915537 
L 196.541887 -201.810337 
L 197.389503 -203.705137 
L 198.274758 -205.599937 
L 199.185205 -207.494737 
L 200.108302 -209.389537 
L 201.031807 -211.284337 
L 201.944128 -213.179137 
L 202.834624 -215.073937 
L 203.693848 -216.968738 
L 204.513725 -218.863538 
L 205.287661 -220.758338 
L 206.010593 -222.653138 
L 206.678981 -224.547938 
L 207.29074 -226.442738 
L 207.845141 -228.337538 
L 208.342664 -230.232338 
L 208.784839 -232.127138 
L 209.174067 -234.021938 
L 209.513434 -235.916738 
L 209.806531 -237.811538 
L 210.057283 -239.706338 
L 210.269794 -241.601138 
L 210.448206 -243.495939 
L 210.596586 -245.390739 
L 211.765914 -245.390739 
L 211.765914 -245.390739 
L 211.914294 -243.495939 
L 212.092706 -241.601138 
L 212.305217 -239.706338 
L 212.555969 -237.811538 
L 212.849066 -235.916738 
L 213.188433 -234.021938 
L 213.577661 -232.127138 
L 214.019836 -230.232338 
L 214.517359 -228.337538 
L 215.07176 -226.442738 
L 215.683519 -224.547938 
L 216.351907 -222.653138 
L 217.074839 -220.758338 
L 217.848775 -218.863538 
L 218.668652 -216.968738 
L 219.527876 -215.073937 
L 220.418372 -213.179137 
L 221.330693 -211.284337 
L 222.254198 -209.389537 
L 223.177295 -207.494737 
L 224.087742 -205.599937 
L 224.972997 -203.705137 
L 225.820613 -201.810337 
L 226.618654 -199.915537 
L 227.356117 -198.020737 
L 228.023343 -196.125937 
L 228.612393 -194.231137 
L 229.117371 -192.336337 
L 229.534671 -190.441536 
L 229.863139 -188.546736 
L 230.104122 -186.651936 
L 230.26142 -184.757136 
L 230.341107 -182.862336 
L 230.351259 -180.967536 
L 230.30157 -179.072736 
L 230.20289 -177.177936 
L 230.066705 -175.283136 
L 229.904579 -173.388336 
L 229.727587 -171.493536 
L 229.545788 -169.598736 
L 229.367744 -167.703936 
L 229.200129 -165.809136 
L 229.047445 -163.914335 
L 228.911864 -162.019535 
L 228.793211 -160.124735 
L 228.689075 -158.229935 
L 228.595057 -156.335135 
L 228.505127 -154.440335 
L 228.412075 -152.545535 
L 228.308019 -150.650735 
L 228.184942 -148.755935 
L 228.03523 -146.861135 
L 227.852158 -144.966335 
L 227.630313 -143.071535 
L 227.365918 -141.176735 
L 227.057045 -139.281935 
L 226.703698 -137.387134 
L 226.307781 -135.492334 
L 225.872932 -133.597534 
L 225.404273 -131.702734 
L 224.908067 -129.807934 
L 224.391324 -127.913134 
L 223.861382 -126.018334 
L 223.325494 -124.123534 
L 222.790445 -122.228734 
L 222.262225 -120.333934 
L 221.745775 -118.439134 
L 221.244821 -116.544334 
L 220.761802 -114.649534 
L 220.297881 -112.754733 
L 219.853045 -110.859933 
L 219.426275 -108.965133 
L 219.015762 -107.070333 
L 218.61916 -105.175533 
L 218.233853 -103.280733 
L 217.857208 -101.385933 
L 217.486814 -99.491133 
L 217.120672 -97.596333 
L 216.757342 -95.701533 
L 216.396034 -93.806733 
L 216.036642 -91.911933 
L 215.679727 -90.017133 
L 215.326452 -88.122333 
L 214.978479 -86.227532 
L 214.637839 -84.332732 
L 214.306788 -82.437932 
L 213.987661 -80.543132 
L 213.682722 -78.648332 
L 213.394048 -76.753532 
L 213.123416 -74.858732 
L 212.872228 -72.963932 
L 212.641464 -71.069132 
L 212.431654 -69.174332 
L 212.242888 -67.279532 
L 212.074843 -65.384732 
L 211.926822 -63.489932 
L 211.79782 -61.595131 
L 211.686584 -59.700331 
L 211.591683 -57.805531 
z
" id="m0ee410a16c" style="stroke:#6f6f6f;stroke-width:1.5;"/>
    </defs>
    <g clip-path="url(#p6ff5971ae9)">
     <use style="fill:#efb792;stroke:#6f6f6f;stroke-width:1.5;" x="0" xlink:href="#m0ee410a16c" y="262.474375"/>
    </g>
   </g>
   <g id="PolyCollection_3">
    <defs>
     <path d="M 323.509533 -47.718011 
L 322.052967 -47.718011 
L 321.879534 -49.420478 
L 321.674496 -51.122945 
L 321.434619 -52.825412 
L 321.156949 -54.527879 
L 320.838981 -56.230346 
L 320.478847 -57.932813 
L 320.075507 -59.63528 
L 319.628942 -61.337747 
L 319.140325 -63.040214 
L 318.612177 -64.742681 
L 318.048471 -66.445148 
L 317.454697 -68.147615 
L 316.837852 -69.850082 
L 316.206367 -71.552549 
L 315.569956 -73.255016 
L 314.939376 -74.957483 
L 314.326124 -76.65995 
L 313.742058 -78.362417 
L 313.19896 -80.064885 
L 312.70807 -81.767352 
L 312.279593 -83.469819 
L 311.922217 -85.172286 
L 311.642657 -86.874753 
L 311.445257 -88.57722 
L 311.331664 -90.279687 
L 311.300602 -91.982154 
L 311.347745 -93.684621 
L 311.465721 -95.387088 
L 311.644224 -97.089555 
L 311.870247 -98.792022 
L 312.128431 -100.494489 
L 312.401495 -102.196956 
L 312.67076 -103.899423 
L 312.916722 -105.60189 
L 313.119668 -107.304357 
L 313.260313 -109.006824 
L 313.320431 -110.709291 
L 313.283469 -112.411758 
L 313.135125 -114.114225 
L 312.863875 -115.816692 
L 312.461432 -117.519159 
L 311.923134 -119.221626 
L 311.248242 -120.924093 
L 310.44014 -122.62656 
L 309.506425 -124.329027 
L 308.458888 -126.031494 
L 307.313358 -127.733961 
L 306.089431 -129.436428 
L 304.810052 -131.138895 
L 303.500977 -132.841362 
L 302.190105 -134.543829 
L 300.906704 -136.246296 
L 299.680548 -137.948763 
L 298.540992 -139.65123 
L 297.516021 -141.353697 
L 296.631308 -143.056164 
L 295.909337 -144.758631 
L 295.368606 -146.461098 
L 295.022988 -148.163565 
L 294.88125 -149.866032 
L 294.946785 -151.568499 
L 295.217553 -153.270966 
L 295.686256 -154.973433 
L 296.340716 -156.6759 
L 297.164462 -158.378367 
L 298.137467 -160.080834 
L 299.237014 -161.783301 
L 300.438627 -163.485768 
L 301.717032 -165.188235 
L 303.047082 -166.890702 
L 304.404604 -168.593169 
L 305.767138 -170.295636 
L 307.114522 -171.998103 
L 308.429322 -173.70057 
L 309.697087 -175.403037 
L 310.906439 -177.105504 
L 312.049011 -178.807971 
L 313.119265 -180.510438 
L 314.1142 -182.212905 
L 315.032998 -183.915372 
L 315.876632 -185.617839 
L 316.647462 -187.320306 
L 317.348851 -189.022773 
L 317.98482 -190.72524 
L 318.559743 -192.427707 
L 319.078113 -194.130174 
L 319.544354 -195.832641 
L 319.962704 -197.535108 
L 320.337133 -199.237575 
L 320.671316 -200.940042 
L 320.968628 -202.642509 
L 321.232167 -204.344976 
L 321.464786 -206.047443 
L 321.66913 -207.74991 
L 321.847673 -209.452377 
L 322.002745 -211.154844 
L 322.13656 -212.857311 
L 322.251227 -214.559778 
L 322.348756 -216.262245 
L 323.213744 -216.262245 
L 323.213744 -216.262245 
L 323.311273 -214.559778 
L 323.42594 -212.857311 
L 323.559755 -211.154844 
L 323.714827 -209.452377 
L 323.89337 -207.74991 
L 324.097714 -206.047443 
L 324.330333 -204.344976 
L 324.593872 -202.642509 
L 324.891184 -200.940042 
L 325.225367 -199.237575 
L 325.599796 -197.535108 
L 326.018146 -195.832641 
L 326.484387 -194.130174 
L 327.002757 -192.427707 
L 327.57768 -190.72524 
L 328.213649 -189.022773 
L 328.915038 -187.320306 
L 329.685868 -185.617839 
L 330.529502 -183.915372 
L 331.4483 -182.212905 
L 332.443235 -180.510438 
L 333.513489 -178.807971 
L 334.656061 -177.105504 
L 335.865413 -175.403037 
L 337.133178 -173.70057 
L 338.447978 -171.998103 
L 339.795362 -170.295636 
L 341.157896 -168.593169 
L 342.515418 -166.890702 
L 343.845468 -165.188235 
L 345.123873 -163.485768 
L 346.325486 -161.783301 
L 347.425033 -160.080834 
L 348.398038 -158.378367 
L 349.221784 -156.6759 
L 349.876244 -154.973433 
L 350.344947 -153.270966 
L 350.615715 -151.568499 
L 350.68125 -149.866032 
L 350.539512 -148.163565 
L 350.193894 -146.461098 
L 349.653163 -144.758631 
L 348.931192 -143.056164 
L 348.046479 -141.353697 
L 347.021508 -139.65123 
L 345.881952 -137.948763 
L 344.655796 -136.246296 
L 343.372395 -134.543829 
L 342.061523 -132.841362 
L 340.752448 -131.138895 
L 339.473069 -129.436428 
L 338.249142 -127.733961 
L 337.103612 -126.031494 
L 336.056075 -124.329027 
L 335.12236 -122.62656 
L 334.314258 -120.924093 
L 333.639366 -119.221626 
L 333.101068 -117.519159 
L 332.698625 -115.816692 
L 332.427375 -114.114225 
L 332.279031 -112.411758 
L 332.242069 -110.709291 
L 332.302187 -109.006824 
L 332.442832 -107.304357 
L 332.645778 -105.60189 
L 332.89174 -103.899423 
L 333.161005 -102.196956 
L 333.434069 -100.494489 
L 333.692253 -98.792022 
L 333.918276 -97.089555 
L 334.096779 -95.387088 
L 334.214755 -93.684621 
L 334.261898 -91.982154 
L 334.230836 -90.279687 
L 334.117243 -88.57722 
L 333.919843 -86.874753 
L 333.640283 -85.172286 
L 333.282907 -83.469819 
L 332.85443 -81.767352 
L 332.36354 -80.064885 
L 331.820442 -78.362417 
L 331.236376 -76.65995 
L 330.623124 -74.957483 
L 329.992544 -73.255016 
L 329.356133 -71.552549 
L 328.724648 -69.850082 
L 328.107803 -68.147615 
L 327.514029 -66.445148 
L 326.950323 -64.742681 
L 326.422175 -63.040214 
L 325.933558 -61.337747 
L 325.486993 -59.63528 
L 325.083653 -57.932813 
L 324.723519 -56.230346 
L 324.405551 -54.527879 
L 324.127881 -52.825412 
L 323.888004 -51.122945 
L 323.682966 -49.420478 
L 323.509533 -47.718011 
z
" id="maaafd305d7" style="stroke:#6f6f6f;stroke-width:1.5;"/>
    </defs>
    <g clip-path="url(#p6ff5971ae9)">
     <use style="fill:#98daa7;stroke:#6f6f6f;stroke-width:1.5;" x="0" xlink:href="#maaafd305d7" y="262.474375"/>
    </g>
   </g>
   <g id="matplotlib.axis_1">
    <g id="xtick_1">
     <g id="line2d_1">
      <defs>
       <path d="M 0 0 
L 0 3.5 
" id="m2c167bcb91" style="stroke:#000000;stroke-width:0.8;"/>
      </defs>
      <g>
       <use style="stroke:#000000;stroke-width:0.8;" x="99.58125" xlink:href="#m2c167bcb91" y="224.64"/>
      </g>
     </g>
     <g id="text_1">
      <!-- Health -->
      <g transform="translate(83.1625 239.238438)scale(0.1 -0.1)">
       <defs>
        <path d="M 9.8125 72.90625 
L 19.671875 72.90625 
L 19.671875 43.015625 
L 55.515625 43.015625 
L 55.515625 72.90625 
L 65.375 72.90625 
L 65.375 0 
L 55.515625 0 
L 55.515625 34.71875 
L 19.671875 34.71875 
L 19.671875 0 
L 9.8125 0 
z
" id="DejaVuSans-72"/>
        <path d="M 56.203125 29.59375 
L 56.203125 25.203125 
L 14.890625 25.203125 
Q 15.484375 15.921875 20.484375 11.0625 
Q 25.484375 6.203125 34.421875 6.203125 
Q 39.59375 6.203125 44.453125 7.46875 
Q 49.3125 8.734375 54.109375 11.28125 
L 54.109375 2.78125 
Q 49.265625 0.734375 44.1875 -0.34375 
Q 39.109375 -1.421875 33.890625 -1.421875 
Q 20.796875 -1.421875 13.15625 6.1875 
Q 5.515625 13.8125 5.515625 26.8125 
Q 5.515625 40.234375 12.765625 48.109375 
Q 20.015625 56 32.328125 56 
Q 43.359375 56 49.78125 48.890625 
Q 56.203125 41.796875 56.203125 29.59375 
z
M 47.21875 32.234375 
Q 47.125 39.59375 43.09375 43.984375 
Q 39.0625 48.390625 32.421875 48.390625 
Q 24.90625 48.390625 20.390625 44.140625 
Q 15.875 39.890625 15.1875 32.171875 
z
" id="DejaVuSans-101"/>
        <path d="M 34.28125 27.484375 
Q 23.390625 27.484375 19.1875 25 
Q 14.984375 22.515625 14.984375 16.5 
Q 14.984375 11.71875 18.140625 8.90625 
Q 21.296875 6.109375 26.703125 6.109375 
Q 34.1875 6.109375 38.703125 11.40625 
Q 43.21875 16.703125 43.21875 25.484375 
L 43.21875 27.484375 
z
M 52.203125 31.203125 
L 52.203125 0 
L 43.21875 0 
L 43.21875 8.296875 
Q 40.140625 3.328125 35.546875 0.953125 
Q 30.953125 -1.421875 24.3125 -1.421875 
Q 15.921875 -1.421875 10.953125 3.296875 
Q 6 8.015625 6 15.921875 
Q 6 25.140625 12.171875 29.828125 
Q 18.359375 34.515625 30.609375 34.515625 
L 43.21875 34.515625 
L 43.21875 35.40625 
Q 43.21875 41.609375 39.140625 45 
Q 35.0625 48.390625 27.6875 48.390625 
Q 23 48.390625 18.546875 47.265625 
Q 14.109375 46.140625 10.015625 43.890625 
L 10.015625 52.203125 
Q 14.9375 54.109375 19.578125 55.046875 
Q 24.21875 56 28.609375 56 
Q 40.484375 56 46.34375 49.84375 
Q 52.203125 43.703125 52.203125 31.203125 
z
" id="DejaVuSans-97"/>
        <path d="M 9.421875 75.984375 
L 18.40625 75.984375 
L 18.40625 0 
L 9.421875 0 
z
" id="DejaVuSans-108"/>
        <path d="M 18.3125 70.21875 
L 18.3125 54.6875 
L 36.8125 54.6875 
L 36.8125 47.703125 
L 18.3125 47.703125 
L 18.3125 18.015625 
Q 18.3125 11.328125 20.140625 9.421875 
Q 21.96875 7.515625 27.59375 7.515625 
L 36.8125 7.515625 
L 36.8125 0 
L 27.59375 0 
Q 17.1875 0 13.234375 3.875 
Q 9.28125 7.765625 9.28125 18.015625 
L 9.28125 47.703125 
L 2.6875 47.703125 
L 2.6875 54.6875 
L 9.28125 54.6875 
L 9.28125 70.21875 
z
" id="DejaVuSans-116"/>
        <path d="M 54.890625 33.015625 
L 54.890625 0 
L 45.90625 0 
L 45.90625 32.71875 
Q 45.90625 40.484375 42.875 44.328125 
Q 39.84375 48.1875 33.796875 48.1875 
Q 26.515625 48.1875 22.3125 43.546875 
Q 18.109375 38.921875 18.109375 30.90625 
L 18.109375 0 
L 9.078125 0 
L 9.078125 75.984375 
L 18.109375 75.984375 
L 18.109375 46.1875 
Q 21.34375 51.125 25.703125 53.5625 
Q 30.078125 56 35.796875 56 
Q 45.21875 56 50.046875 50.171875 
Q 54.890625 44.34375 54.890625 33.015625 
z
" id="DejaVuSans-104"/>
       </defs>
       <use xlink:href="#DejaVuSans-72"/>
       <use x="75.195312" xlink:href="#DejaVuSans-101"/>
       <use x="136.71875" xlink:href="#DejaVuSans-97"/>
       <use x="197.998047" xlink:href="#DejaVuSans-108"/>
       <use x="225.78125" xlink:href="#DejaVuSans-116"/>
       <use x="264.990234" xlink:href="#DejaVuSans-104"/>
      </g>
     </g>
    </g>
    <g id="xtick_2">
     <g id="line2d_2">
      <g>
       <use style="stroke:#000000;stroke-width:0.8;" x="211.18125" xlink:href="#m2c167bcb91" y="224.64"/>
      </g>
     </g>
     <g id="text_2">
      <!-- Education -->
      <g transform="translate(186.288281 239.238438)scale(0.1 -0.1)">
       <defs>
        <path d="M 9.8125 72.90625 
L 55.90625 72.90625 
L 55.90625 64.59375 
L 19.671875 64.59375 
L 19.671875 43.015625 
L 54.390625 43.015625 
L 54.390625 34.71875 
L 19.671875 34.71875 
L 19.671875 8.296875 
L 56.78125 8.296875 
L 56.78125 0 
L 9.8125 0 
z
" id="DejaVuSans-69"/>
        <path d="M 45.40625 46.390625 
L 45.40625 75.984375 
L 54.390625 75.984375 
L 54.390625 0 
L 45.40625 0 
L 45.40625 8.203125 
Q 42.578125 3.328125 38.25 0.953125 
Q 33.9375 -1.421875 27.875 -1.421875 
Q 17.96875 -1.421875 11.734375 6.484375 
Q 5.515625 14.40625 5.515625 27.296875 
Q 5.515625 40.1875 11.734375 48.09375 
Q 17.96875 56 27.875 56 
Q 33.9375 56 38.25 53.625 
Q 42.578125 51.265625 45.40625 46.390625 
z
M 14.796875 27.296875 
Q 14.796875 17.390625 18.875 11.75 
Q 22.953125 6.109375 30.078125 6.109375 
Q 37.203125 6.109375 41.296875 11.75 
Q 45.40625 17.390625 45.40625 27.296875 
Q 45.40625 37.203125 41.296875 42.84375 
Q 37.203125 48.484375 30.078125 48.484375 
Q 22.953125 48.484375 18.875 42.84375 
Q 14.796875 37.203125 14.796875 27.296875 
z
" id="DejaVuSans-100"/>
        <path d="M 8.5 21.578125 
L 8.5 54.6875 
L 17.484375 54.6875 
L 17.484375 21.921875 
Q 17.484375 14.15625 20.5 10.265625 
Q 23.53125 6.390625 29.59375 6.390625 
Q 36.859375 6.390625 41.078125 11.03125 
Q 45.3125 15.671875 45.3125 23.6875 
L 45.3125 54.6875 
L 54.296875 54.6875 
L 54.296875 0 
L 45.3125 0 
L 45.3125 8.40625 
Q 42.046875 3.421875 37.71875 1 
Q 33.40625 -1.421875 27.6875 -1.421875 
Q 18.265625 -1.421875 13.375 4.4375 
Q 8.5 10.296875 8.5 21.578125 
z
M 31.109375 56 
z
" id="DejaVuSans-117"/>
        <path d="M 48.78125 52.59375 
L 48.78125 44.1875 
Q 44.96875 46.296875 41.140625 47.34375 
Q 37.3125 48.390625 33.40625 48.390625 
Q 24.65625 48.390625 19.8125 42.84375 
Q 14.984375 37.3125 14.984375 27.296875 
Q 14.984375 17.28125 19.8125 11.734375 
Q 24.65625 6.203125 33.40625 6.203125 
Q 37.3125 6.203125 41.140625 7.25 
Q 44.96875 8.296875 48.78125 10.40625 
L 48.78125 2.09375 
Q 45.015625 0.34375 40.984375 -0.53125 
Q 36.96875 -1.421875 32.421875 -1.421875 
Q 20.0625 -1.421875 12.78125 6.34375 
Q 5.515625 14.109375 5.515625 27.296875 
Q 5.515625 40.671875 12.859375 48.328125 
Q 20.21875 56 33.015625 56 
Q 37.15625 56 41.109375 55.140625 
Q 45.0625 54.296875 48.78125 52.59375 
z
" id="DejaVuSans-99"/>
        <path d="M 9.421875 54.6875 
L 18.40625 54.6875 
L 18.40625 0 
L 9.421875 0 
z
M 9.421875 75.984375 
L 18.40625 75.984375 
L 18.40625 64.59375 
L 9.421875 64.59375 
z
" id="DejaVuSans-105"/>
        <path d="M 30.609375 48.390625 
Q 23.390625 48.390625 19.1875 42.75 
Q 14.984375 37.109375 14.984375 27.296875 
Q 14.984375 17.484375 19.15625 11.84375 
Q 23.34375 6.203125 30.609375 6.203125 
Q 37.796875 6.203125 41.984375 11.859375 
Q 46.1875 17.53125 46.1875 27.296875 
Q 46.1875 37.015625 41.984375 42.703125 
Q 37.796875 48.390625 30.609375 48.390625 
z
M 30.609375 56 
Q 42.328125 56 49.015625 48.375 
Q 55.71875 40.765625 55.71875 27.296875 
Q 55.71875 13.875 49.015625 6.21875 
Q 42.328125 -1.421875 30.609375 -1.421875 
Q 18.84375 -1.421875 12.171875 6.21875 
Q 5.515625 13.875 5.515625 27.296875 
Q 5.515625 40.765625 12.171875 48.375 
Q 18.84375 56 30.609375 56 
z
" id="DejaVuSans-111"/>
        <path d="M 54.890625 33.015625 
L 54.890625 0 
L 45.90625 0 
L 45.90625 32.71875 
Q 45.90625 40.484375 42.875 44.328125 
Q 39.84375 48.1875 33.796875 48.1875 
Q 26.515625 48.1875 22.3125 43.546875 
Q 18.109375 38.921875 18.109375 30.90625 
L 18.109375 0 
L 9.078125 0 
L 9.078125 54.6875 
L 18.109375 54.6875 
L 18.109375 46.1875 
Q 21.34375 51.125 25.703125 53.5625 
Q 30.078125 56 35.796875 56 
Q 45.21875 56 50.046875 50.171875 
Q 54.890625 44.34375 54.890625 33.015625 
z
" id="DejaVuSans-110"/>
       </defs>
       <use xlink:href="#DejaVuSans-69"/>
       <use x="63.183594" xlink:href="#DejaVuSans-100"/>
       <use x="126.660156" xlink:href="#DejaVuSans-117"/>
       <use x="190.039062" xlink:href="#DejaVuSans-99"/>
       <use x="245.019531" xlink:href="#DejaVuSans-97"/>
       <use x="306.298828" xlink:href="#DejaVuSans-116"/>
       <use x="345.507812" xlink:href="#DejaVuSans-105"/>
       <use x="373.291016" xlink:href="#DejaVuSans-111"/>
       <use x="434.472656" xlink:href="#DejaVuSans-110"/>
      </g>
     </g>
    </g>
    <g id="xtick_3">
     <g id="line2d_3">
      <g>
       <use style="stroke:#000000;stroke-width:0.8;" x="322.78125" xlink:href="#m2c167bcb91" y="224.64"/>
      </g>
     </g>
     <g id="text_3">
      <!-- Humanities &amp; Liberal Arts -->
      <g transform="translate(258.688281 239.238438)scale(0.1 -0.1)">
       <defs>
        <path d="M 52 44.1875 
Q 55.375 50.25 60.0625 53.125 
Q 64.75 56 71.09375 56 
Q 79.640625 56 84.28125 50.015625 
Q 88.921875 44.046875 88.921875 33.015625 
L 88.921875 0 
L 79.890625 0 
L 79.890625 32.71875 
Q 79.890625 40.578125 77.09375 44.375 
Q 74.3125 48.1875 68.609375 48.1875 
Q 61.625 48.1875 57.5625 43.546875 
Q 53.515625 38.921875 53.515625 30.90625 
L 53.515625 0 
L 44.484375 0 
L 44.484375 32.71875 
Q 44.484375 40.625 41.703125 44.40625 
Q 38.921875 48.1875 33.109375 48.1875 
Q 26.21875 48.1875 22.15625 43.53125 
Q 18.109375 38.875 18.109375 30.90625 
L 18.109375 0 
L 9.078125 0 
L 9.078125 54.6875 
L 18.109375 54.6875 
L 18.109375 46.1875 
Q 21.1875 51.21875 25.484375 53.609375 
Q 29.78125 56 35.6875 56 
Q 41.65625 56 45.828125 52.96875 
Q 50 49.953125 52 44.1875 
z
" id="DejaVuSans-109"/>
        <path d="M 44.28125 53.078125 
L 44.28125 44.578125 
Q 40.484375 46.53125 36.375 47.5 
Q 32.28125 48.484375 27.875 48.484375 
Q 21.1875 48.484375 17.84375 46.4375 
Q 14.5 44.390625 14.5 40.28125 
Q 14.5 37.15625 16.890625 35.375 
Q 19.28125 33.59375 26.515625 31.984375 
L 29.59375 31.296875 
Q 39.15625 29.25 43.1875 25.515625 
Q 47.21875 21.78125 47.21875 15.09375 
Q 47.21875 7.46875 41.1875 3.015625 
Q 35.15625 -1.421875 24.609375 -1.421875 
Q 20.21875 -1.421875 15.453125 -0.5625 
Q 10.6875 0.296875 5.421875 2 
L 5.421875 11.28125 
Q 10.40625 8.6875 15.234375 7.390625 
Q 20.0625 6.109375 24.8125 6.109375 
Q 31.15625 6.109375 34.5625 8.28125 
Q 37.984375 10.453125 37.984375 14.40625 
Q 37.984375 18.0625 35.515625 20.015625 
Q 33.0625 21.96875 24.703125 23.78125 
L 21.578125 24.515625 
Q 13.234375 26.265625 9.515625 29.90625 
Q 5.8125 33.546875 5.8125 39.890625 
Q 5.8125 47.609375 11.28125 51.796875 
Q 16.75 56 26.8125 56 
Q 31.78125 56 36.171875 55.265625 
Q 40.578125 54.546875 44.28125 53.078125 
z
" id="DejaVuSans-115"/>
        <path id="DejaVuSans-32"/>
        <path d="M 24.3125 39.203125 
Q 19.875 35.25 17.796875 31.3125 
Q 15.71875 27.390625 15.71875 23.09375 
Q 15.71875 15.96875 20.890625 11.234375 
Q 26.078125 6.5 33.890625 6.5 
Q 38.53125 6.5 42.578125 8.03125 
Q 46.625 9.578125 50.203125 12.703125 
z
M 31.203125 44.671875 
L 56 19.28125 
Q 58.890625 23.640625 60.5 28.59375 
Q 62.109375 33.546875 62.40625 39.109375 
L 71.484375 39.109375 
Q 70.90625 32.671875 68.359375 26.359375 
Q 65.828125 20.0625 61.28125 13.921875 
L 74.90625 0 
L 62.59375 0 
L 55.609375 7.171875 
Q 50.53125 2.828125 44.96875 0.703125 
Q 39.40625 -1.421875 33.015625 -1.421875 
Q 21.234375 -1.421875 13.765625 5.296875 
Q 6.296875 12.015625 6.296875 22.515625 
Q 6.296875 28.765625 9.5625 34.25 
Q 12.84375 39.75 19.390625 44.578125 
Q 17.046875 47.65625 15.8125 50.703125 
Q 14.59375 53.765625 14.59375 56.6875 
Q 14.59375 64.59375 20.015625 69.40625 
Q 25.4375 74.21875 34.421875 74.21875 
Q 38.484375 74.21875 42.5 73.34375 
Q 46.53125 72.46875 50.6875 70.703125 
L 50.6875 61.8125 
Q 46.4375 64.109375 42.578125 65.296875 
Q 38.71875 66.5 35.40625 66.5 
Q 30.28125 66.5 27.078125 63.78125 
Q 23.875 61.078125 23.875 56.78125 
Q 23.875 54.296875 25.3125 51.78125 
Q 26.765625 49.265625 31.203125 44.671875 
z
" id="DejaVuSans-38"/>
        <path d="M 9.8125 72.90625 
L 19.671875 72.90625 
L 19.671875 8.296875 
L 55.171875 8.296875 
L 55.171875 0 
L 9.8125 0 
z
" id="DejaVuSans-76"/>
        <path d="M 48.6875 27.296875 
Q 48.6875 37.203125 44.609375 42.84375 
Q 40.53125 48.484375 33.40625 48.484375 
Q 26.265625 48.484375 22.1875 42.84375 
Q 18.109375 37.203125 18.109375 27.296875 
Q 18.109375 17.390625 22.1875 11.75 
Q 26.265625 6.109375 33.40625 6.109375 
Q 40.53125 6.109375 44.609375 11.75 
Q 48.6875 17.390625 48.6875 27.296875 
z
M 18.109375 46.390625 
Q 20.953125 51.265625 25.265625 53.625 
Q 29.59375 56 35.59375 56 
Q 45.5625 56 51.78125 48.09375 
Q 58.015625 40.1875 58.015625 27.296875 
Q 58.015625 14.40625 51.78125 6.484375 
Q 45.5625 -1.421875 35.59375 -1.421875 
Q 29.59375 -1.421875 25.265625 0.953125 
Q 20.953125 3.328125 18.109375 8.203125 
L 18.109375 0 
L 9.078125 0 
L 9.078125 75.984375 
L 18.109375 75.984375 
z
" id="DejaVuSans-98"/>
        <path d="M 41.109375 46.296875 
Q 39.59375 47.171875 37.8125 47.578125 
Q 36.03125 48 33.890625 48 
Q 26.265625 48 22.1875 43.046875 
Q 18.109375 38.09375 18.109375 28.8125 
L 18.109375 0 
L 9.078125 0 
L 9.078125 54.6875 
L 18.109375 54.6875 
L 18.109375 46.1875 
Q 20.953125 51.171875 25.484375 53.578125 
Q 30.03125 56 36.53125 56 
Q 37.453125 56 38.578125 55.875 
Q 39.703125 55.765625 41.0625 55.515625 
z
" id="DejaVuSans-114"/>
        <path d="M 34.1875 63.1875 
L 20.796875 26.90625 
L 47.609375 26.90625 
z
M 28.609375 72.90625 
L 39.796875 72.90625 
L 67.578125 0 
L 57.328125 0 
L 50.6875 18.703125 
L 17.828125 18.703125 
L 11.1875 0 
L 0.78125 0 
z
" id="DejaVuSans-65"/>
       </defs>
       <use xlink:href="#DejaVuSans-72"/>
       <use x="75.195312" xlink:href="#DejaVuSans-117"/>
       <use x="138.574219" xlink:href="#DejaVuSans-109"/>
       <use x="235.986328" xlink:href="#DejaVuSans-97"/>
       <use x="297.265625" xlink:href="#DejaVuSans-110"/>
       <use x="360.644531" xlink:href="#DejaVuSans-105"/>
       <use x="388.427734" xlink:href="#DejaVuSans-116"/>
       <use x="427.636719" xlink:href="#DejaVuSans-105"/>
       <use x="455.419922" xlink:href="#DejaVuSans-101"/>
       <use x="516.943359" xlink:href="#DejaVuSans-115"/>
       <use x="569.042969" xlink:href="#DejaVuSans-32"/>
       <use x="600.830078" xlink:href="#DejaVuSans-38"/>
       <use x="678.808594" xlink:href="#DejaVuSans-32"/>
       <use x="710.595703" xlink:href="#DejaVuSans-76"/>
       <use x="766.308594" xlink:href="#DejaVuSans-105"/>
       <use x="794.091797" xlink:href="#DejaVuSans-98"/>
       <use x="857.568359" xlink:href="#DejaVuSans-101"/>
       <use x="919.091797" xlink:href="#DejaVuSans-114"/>
       <use x="960.205078" xlink:href="#DejaVuSans-97"/>
       <use x="1021.484375" xlink:href="#DejaVuSans-108"/>
       <use x="1049.267578" xlink:href="#DejaVuSans-32"/>
       <use x="1081.054688" xlink:href="#DejaVuSans-65"/>
       <use x="1149.462891" xlink:href="#DejaVuSans-114"/>
       <use x="1190.576172" xlink:href="#DejaVuSans-116"/>
       <use x="1229.785156" xlink:href="#DejaVuSans-115"/>
      </g>
     </g>
    </g>
    <g id="text_4">
     <!-- Major_category -->
     <g transform="translate(172.700781 252.916562)scale(0.1 -0.1)">
      <defs>
       <path d="M 9.8125 72.90625 
L 24.515625 72.90625 
L 43.109375 23.296875 
L 61.8125 72.90625 
L 76.515625 72.90625 
L 76.515625 0 
L 66.890625 0 
L 66.890625 64.015625 
L 48.09375 14.015625 
L 38.1875 14.015625 
L 19.390625 64.015625 
L 19.390625 0 
L 9.8125 0 
z
" id="DejaVuSans-77"/>
       <path d="M 9.421875 54.6875 
L 18.40625 54.6875 
L 18.40625 -0.984375 
Q 18.40625 -11.421875 14.421875 -16.109375 
Q 10.453125 -20.796875 1.609375 -20.796875 
L -1.8125 -20.796875 
L -1.8125 -13.1875 
L 0.59375 -13.1875 
Q 5.71875 -13.1875 7.5625 -10.8125 
Q 9.421875 -8.453125 9.421875 -0.984375 
z
M 9.421875 75.984375 
L 18.40625 75.984375 
L 18.40625 64.59375 
L 9.421875 64.59375 
z
" id="DejaVuSans-106"/>
       <path d="M 50.984375 -16.609375 
L 50.984375 -23.578125 
L -0.984375 -23.578125 
L -0.984375 -16.609375 
z
" id="DejaVuSans-95"/>
       <path d="M 45.40625 27.984375 
Q 45.40625 37.75 41.375 43.109375 
Q 37.359375 48.484375 30.078125 48.484375 
Q 22.859375 48.484375 18.828125 43.109375 
Q 14.796875 37.75 14.796875 27.984375 
Q 14.796875 18.265625 18.828125 12.890625 
Q 22.859375 7.515625 30.078125 7.515625 
Q 37.359375 7.515625 41.375 12.890625 
Q 45.40625 18.265625 45.40625 27.984375 
z
M 54.390625 6.78125 
Q 54.390625 -7.171875 48.1875 -13.984375 
Q 42 -20.796875 29.203125 -20.796875 
Q 24.46875 -20.796875 20.265625 -20.09375 
Q 16.0625 -19.390625 12.109375 -17.921875 
L 12.109375 -9.1875 
Q 16.0625 -11.328125 19.921875 -12.34375 
Q 23.78125 -13.375 27.78125 -13.375 
Q 36.625 -13.375 41.015625 -8.765625 
Q 45.40625 -4.15625 45.40625 5.171875 
L 45.40625 9.625 
Q 42.625 4.78125 38.28125 2.390625 
Q 33.9375 0 27.875 0 
Q 17.828125 0 11.671875 7.65625 
Q 5.515625 15.328125 5.515625 27.984375 
Q 5.515625 40.671875 11.671875 48.328125 
Q 17.828125 56 27.875 56 
Q 33.9375 56 38.28125 53.609375 
Q 42.625 51.21875 45.40625 46.390625 
L 45.40625 54.6875 
L 54.390625 54.6875 
z
" id="DejaVuSans-103"/>
       <path d="M 32.171875 -5.078125 
Q 28.375 -14.84375 24.75 -17.8125 
Q 21.140625 -20.796875 15.09375 -20.796875 
L 7.90625 -20.796875 
L 7.90625 -13.28125 
L 13.1875 -13.28125 
Q 16.890625 -13.28125 18.9375 -11.515625 
Q 21 -9.765625 23.484375 -3.21875 
L 25.09375 0.875 
L 2.984375 54.6875 
L 12.5 54.6875 
L 29.59375 11.921875 
L 46.6875 54.6875 
L 56.203125 54.6875 
z
" id="DejaVuSans-121"/>
      </defs>
      <use xlink:href="#DejaVuSans-77"/>
      <use x="86.279297" xlink:href="#DejaVuSans-97"/>
      <use x="147.558594" xlink:href="#DejaVuSans-106"/>
      <use x="175.341797" xlink:href="#DejaVuSans-111"/>
      <use x="236.523438" xlink:href="#DejaVuSans-114"/>
      <use x="277.636719" xlink:href="#DejaVuSans-95"/>
      <use x="327.636719" xlink:href="#DejaVuSans-99"/>
      <use x="382.617188" xlink:href="#DejaVuSans-97"/>
      <use x="443.896484" xlink:href="#DejaVuSans-116"/>
      <use x="483.105469" xlink:href="#DejaVuSans-101"/>
      <use x="544.628906" xlink:href="#DejaVuSans-103"/>
      <use x="608.105469" xlink:href="#DejaVuSans-111"/>
      <use x="669.287109" xlink:href="#DejaVuSans-114"/>
      <use x="710.400391" xlink:href="#DejaVuSans-121"/>
     </g>
    </g>
   </g>
   <g id="matplotlib.axis_2">
    <g id="ytick_1">
     <g id="line2d_4">
      <defs>
       <path d="M 0 0 
L -3.5 0 
" id="m140ebd3140" style="stroke:#000000;stroke-width:0.8;"/>
      </defs>
      <g>
       <use style="stroke:#000000;stroke-width:0.8;" x="43.78125" xlink:href="#m140ebd3140" y="218.952926"/>
      </g>
     </g>
     <g id="text_5">
      <!-- 0.2 -->
      <g transform="translate(20.878125 222.752144)scale(0.1 -0.1)">
       <defs>
        <path d="M 31.78125 66.40625 
Q 24.171875 66.40625 20.328125 58.90625 
Q 16.5 51.421875 16.5 36.375 
Q 16.5 21.390625 20.328125 13.890625 
Q 24.171875 6.390625 31.78125 6.390625 
Q 39.453125 6.390625 43.28125 13.890625 
Q 47.125 21.390625 47.125 36.375 
Q 47.125 51.421875 43.28125 58.90625 
Q 39.453125 66.40625 31.78125 66.40625 
z
M 31.78125 74.21875 
Q 44.046875 74.21875 50.515625 64.515625 
Q 56.984375 54.828125 56.984375 36.375 
Q 56.984375 17.96875 50.515625 8.265625 
Q 44.046875 -1.421875 31.78125 -1.421875 
Q 19.53125 -1.421875 13.0625 8.265625 
Q 6.59375 17.96875 6.59375 36.375 
Q 6.59375 54.828125 13.0625 64.515625 
Q 19.53125 74.21875 31.78125 74.21875 
z
" id="DejaVuSans-48"/>
        <path d="M 10.6875 12.40625 
L 21 12.40625 
L 21 0 
L 10.6875 0 
z
" id="DejaVuSans-46"/>
        <path d="M 19.1875 8.296875 
L 53.609375 8.296875 
L 53.609375 0 
L 7.328125 0 
L 7.328125 8.296875 
Q 12.9375 14.109375 22.625 23.890625 
Q 32.328125 33.6875 34.8125 36.53125 
Q 39.546875 41.84375 41.421875 45.53125 
Q 43.3125 49.21875 43.3125 52.78125 
Q 43.3125 58.59375 39.234375 62.25 
Q 35.15625 65.921875 28.609375 65.921875 
Q 23.96875 65.921875 18.8125 64.3125 
Q 13.671875 62.703125 7.8125 59.421875 
L 7.8125 69.390625 
Q 13.765625 71.78125 18.9375 73 
Q 24.125 74.21875 28.421875 74.21875 
Q 39.75 74.21875 46.484375 68.546875 
Q 53.21875 62.890625 53.21875 53.421875 
Q 53.21875 48.921875 51.53125 44.890625 
Q 49.859375 40.875 45.40625 35.40625 
Q 44.1875 33.984375 37.640625 27.21875 
Q 31.109375 20.453125 19.1875 8.296875 
z
" id="DejaVuSans-50"/>
       </defs>
       <use xlink:href="#DejaVuSans-48"/>
       <use x="63.623047" xlink:href="#DejaVuSans-46"/>
       <use x="95.410156" xlink:href="#DejaVuSans-50"/>
      </g>
     </g>
    </g>
    <g id="ytick_2">
     <g id="line2d_5">
      <g>
       <use style="stroke:#000000;stroke-width:0.8;" x="43.78125" xlink:href="#m140ebd3140" y="176.299605"/>
      </g>
     </g>
     <g id="text_6">
      <!-- 0.4 -->
      <g transform="translate(20.878125 180.098824)scale(0.1 -0.1)">
       <defs>
        <path d="M 37.796875 64.3125 
L 12.890625 25.390625 
L 37.796875 25.390625 
z
M 35.203125 72.90625 
L 47.609375 72.90625 
L 47.609375 25.390625 
L 58.015625 25.390625 
L 58.015625 17.1875 
L 47.609375 17.1875 
L 47.609375 0 
L 37.796875 0 
L 37.796875 17.1875 
L 4.890625 17.1875 
L 4.890625 26.703125 
z
" id="DejaVuSans-52"/>
       </defs>
       <use xlink:href="#DejaVuSans-48"/>
       <use x="63.623047" xlink:href="#DejaVuSans-46"/>
       <use x="95.410156" xlink:href="#DejaVuSans-52"/>
      </g>
     </g>
    </g>
    <g id="ytick_3">
     <g id="line2d_6">
      <g>
       <use style="stroke:#000000;stroke-width:0.8;" x="43.78125" xlink:href="#m140ebd3140" y="133.646285"/>
      </g>
     </g>
     <g id="text_7">
      <!-- 0.6 -->
      <g transform="translate(20.878125 137.445504)scale(0.1 -0.1)">
       <defs>
        <path d="M 33.015625 40.375 
Q 26.375 40.375 22.484375 35.828125 
Q 18.609375 31.296875 18.609375 23.390625 
Q 18.609375 15.53125 22.484375 10.953125 
Q 26.375 6.390625 33.015625 6.390625 
Q 39.65625 6.390625 43.53125 10.953125 
Q 47.40625 15.53125 47.40625 23.390625 
Q 47.40625 31.296875 43.53125 35.828125 
Q 39.65625 40.375 33.015625 40.375 
z
M 52.59375 71.296875 
L 52.59375 62.3125 
Q 48.875 64.0625 45.09375 64.984375 
Q 41.3125 65.921875 37.59375 65.921875 
Q 27.828125 65.921875 22.671875 59.328125 
Q 17.53125 52.734375 16.796875 39.40625 
Q 19.671875 43.65625 24.015625 45.921875 
Q 28.375 48.1875 33.59375 48.1875 
Q 44.578125 48.1875 50.953125 41.515625 
Q 57.328125 34.859375 57.328125 23.390625 
Q 57.328125 12.15625 50.6875 5.359375 
Q 44.046875 -1.421875 33.015625 -1.421875 
Q 20.359375 -1.421875 13.671875 8.265625 
Q 6.984375 17.96875 6.984375 36.375 
Q 6.984375 53.65625 15.1875 63.9375 
Q 23.390625 74.21875 37.203125 74.21875 
Q 40.921875 74.21875 44.703125 73.484375 
Q 48.484375 72.75 52.59375 71.296875 
z
" id="DejaVuSans-54"/>
       </defs>
       <use xlink:href="#DejaVuSans-48"/>
       <use x="63.623047" xlink:href="#DejaVuSans-46"/>
       <use x="95.410156" xlink:href="#DejaVuSans-54"/>
      </g>
     </g>
    </g>
    <g id="ytick_4">
     <g id="line2d_7">
      <g>
       <use style="stroke:#000000;stroke-width:0.8;" x="43.78125" xlink:href="#m140ebd3140" y="90.992965"/>
      </g>
     </g>
     <g id="text_8">
      <!-- 0.8 -->
      <g transform="translate(20.878125 94.792184)scale(0.1 -0.1)">
       <defs>
        <path d="M 31.78125 34.625 
Q 24.75 34.625 20.71875 30.859375 
Q 16.703125 27.09375 16.703125 20.515625 
Q 16.703125 13.921875 20.71875 10.15625 
Q 24.75 6.390625 31.78125 6.390625 
Q 38.8125 6.390625 42.859375 10.171875 
Q 46.921875 13.96875 46.921875 20.515625 
Q 46.921875 27.09375 42.890625 30.859375 
Q 38.875 34.625 31.78125 34.625 
z
M 21.921875 38.8125 
Q 15.578125 40.375 12.03125 44.71875 
Q 8.5 49.078125 8.5 55.328125 
Q 8.5 64.0625 14.71875 69.140625 
Q 20.953125 74.21875 31.78125 74.21875 
Q 42.671875 74.21875 48.875 69.140625 
Q 55.078125 64.0625 55.078125 55.328125 
Q 55.078125 49.078125 51.53125 44.71875 
Q 48 40.375 41.703125 38.8125 
Q 48.828125 37.15625 52.796875 32.3125 
Q 56.78125 27.484375 56.78125 20.515625 
Q 56.78125 9.90625 50.3125 4.234375 
Q 43.84375 -1.421875 31.78125 -1.421875 
Q 19.734375 -1.421875 13.25 4.234375 
Q 6.78125 9.90625 6.78125 20.515625 
Q 6.78125 27.484375 10.78125 32.3125 
Q 14.796875 37.15625 21.921875 38.8125 
z
M 18.3125 54.390625 
Q 18.3125 48.734375 21.84375 45.5625 
Q 25.390625 42.390625 31.78125 42.390625 
Q 38.140625 42.390625 41.71875 45.5625 
Q 45.3125 48.734375 45.3125 54.390625 
Q 45.3125 60.0625 41.71875 63.234375 
Q 38.140625 66.40625 31.78125 66.40625 
Q 25.390625 66.40625 21.84375 63.234375 
Q 18.3125 60.0625 18.3125 54.390625 
z
" id="DejaVuSans-56"/>
       </defs>
       <use xlink:href="#DejaVuSans-48"/>
       <use x="63.623047" xlink:href="#DejaVuSans-46"/>
       <use x="95.410156" xlink:href="#DejaVuSans-56"/>
      </g>
     </g>
    </g>
    <g id="ytick_5">
     <g id="line2d_8">
      <g>
       <use style="stroke:#000000;stroke-width:0.8;" x="43.78125" xlink:href="#m140ebd3140" y="48.339645"/>
      </g>
     </g>
     <g id="text_9">
      <!-- 1.0 -->
      <g transform="translate(20.878125 52.138863)scale(0.1 -0.1)">
       <defs>
        <path d="M 12.40625 8.296875 
L 28.515625 8.296875 
L 28.515625 63.921875 
L 10.984375 60.40625 
L 10.984375 69.390625 
L 28.421875 72.90625 
L 38.28125 72.90625 
L 38.28125 8.296875 
L 54.390625 8.296875 
L 54.390625 0 
L 12.40625 0 
z
" id="DejaVuSans-49"/>
       </defs>
       <use xlink:href="#DejaVuSans-49"/>
       <use x="63.623047" xlink:href="#DejaVuSans-46"/>
       <use x="95.410156" xlink:href="#DejaVuSans-48"/>
      </g>
     </g>
    </g>
    <g id="text_10">
     <!-- ShareWomen -->
     <g transform="translate(14.798438 149.171563)rotate(-90)scale(0.1 -0.1)">
      <defs>
       <path d="M 53.515625 70.515625 
L 53.515625 60.890625 
Q 47.90625 63.578125 42.921875 64.890625 
Q 37.9375 66.21875 33.296875 66.21875 
Q 25.25 66.21875 20.875 63.09375 
Q 16.5 59.96875 16.5 54.203125 
Q 16.5 49.359375 19.40625 46.890625 
Q 22.3125 44.4375 30.421875 42.921875 
L 36.375 41.703125 
Q 47.40625 39.59375 52.65625 34.296875 
Q 57.90625 29 57.90625 20.125 
Q 57.90625 9.515625 50.796875 4.046875 
Q 43.703125 -1.421875 29.984375 -1.421875 
Q 24.8125 -1.421875 18.96875 -0.25 
Q 13.140625 0.921875 6.890625 3.21875 
L 6.890625 13.375 
Q 12.890625 10.015625 18.65625 8.296875 
Q 24.421875 6.59375 29.984375 6.59375 
Q 38.421875 6.59375 43.015625 9.90625 
Q 47.609375 13.234375 47.609375 19.390625 
Q 47.609375 24.75 44.3125 27.78125 
Q 41.015625 30.8125 33.5 32.328125 
L 27.484375 33.5 
Q 16.453125 35.6875 11.515625 40.375 
Q 6.59375 45.0625 6.59375 53.421875 
Q 6.59375 63.09375 13.40625 68.65625 
Q 20.21875 74.21875 32.171875 74.21875 
Q 37.3125 74.21875 42.625 73.28125 
Q 47.953125 72.359375 53.515625 70.515625 
z
" id="DejaVuSans-83"/>
       <path d="M 3.328125 72.90625 
L 13.28125 72.90625 
L 28.609375 11.28125 
L 43.890625 72.90625 
L 54.984375 72.90625 
L 70.3125 11.28125 
L 85.59375 72.90625 
L 95.609375 72.90625 
L 77.296875 0 
L 64.890625 0 
L 49.515625 63.28125 
L 33.984375 0 
L 21.578125 0 
z
" id="DejaVuSans-87"/>
      </defs>
      <use xlink:href="#DejaVuSans-83"/>
      <use x="63.476562" xlink:href="#DejaVuSans-104"/>
      <use x="126.855469" xlink:href="#DejaVuSans-97"/>
      <use x="188.134766" xlink:href="#DejaVuSans-114"/>
      <use x="226.998047" xlink:href="#DejaVuSans-101"/>
      <use x="288.521484" xlink:href="#DejaVuSans-87"/>
      <use x="381.523438" xlink:href="#DejaVuSans-111"/>
      <use x="442.705078" xlink:href="#DejaVuSans-109"/>
      <use x="540.117188" xlink:href="#DejaVuSans-101"/>
      <use x="601.640625" xlink:href="#DejaVuSans-110"/>
     </g>
    </g>
   </g>
   <g id="line2d_9">
    <path clip-path="url(#p6ff5971ae9)" d="M 99.58125 140.760752 
L 99.58125 55.164577 
" style="fill:none;stroke:#6f6f6f;stroke-linecap:square;stroke-width:1.5;"/>
   </g>
   <g id="line2d_10">
    <path clip-path="url(#p6ff5971ae9)" d="M 99.58125 102.528129 
L 99.58125 72.8706 
" style="fill:none;stroke:#6f6f6f;stroke-linecap:square;stroke-width:4.5;"/>
   </g>
   <g id="line2d_11">
    <path clip-path="url(#p6ff5971ae9)" d="M 211.18125 166.791693 
L 211.18125 54.960787 
" style="fill:none;stroke:#6f6f6f;stroke-linecap:square;stroke-width:1.5;"/>
   </g>
   <g id="line2d_12">
    <path clip-path="url(#p6ff5971ae9)" d="M 211.18125 123.237602 
L 211.18125 74.483863 
" style="fill:none;stroke:#6f6f6f;stroke-linecap:square;stroke-width:4.5;"/>
   </g>
   <g id="line2d_13">
    <path clip-path="url(#p6ff5971ae9)" d="M 322.78125 179.771798 
L 322.78125 81.196696 
" style="fill:none;stroke:#6f6f6f;stroke-linecap:square;stroke-width:1.5;"/>
   </g>
   <g id="line2d_14">
    <path clip-path="url(#p6ff5971ae9)" d="M 322.78125 146.630289 
L 322.78125 109.441039 
" style="fill:none;stroke:#6f6f6f;stroke-linecap:square;stroke-width:4.5;"/>
   </g>
   <g id="patch_3">
    <path d="M 43.78125 224.64 
L 43.78125 7.2 
" style="fill:none;stroke:#000000;stroke-linecap:square;stroke-linejoin:miter;stroke-width:0.8;"/>
   </g>
   <g id="patch_4">
    <path d="M 378.58125 224.64 
L 378.58125 7.2 
" style="fill:none;stroke:#000000;stroke-linecap:square;stroke-linejoin:miter;stroke-width:0.8;"/>
   </g>
   <g id="patch_5">
    <path d="M 43.78125 224.64 
L 378.58125 224.64 
" style="fill:none;stroke:#000000;stroke-linecap:square;stroke-linejoin:miter;stroke-width:0.8;"/>
   </g>
   <g id="patch_6">
    <path d="M 43.78125 7.2 
L 378.58125 7.2 
" style="fill:none;stroke:#000000;stroke-linecap:square;stroke-linejoin:miter;stroke-width:0.8;"/>
   </g>
   <g id="PathCollection_1">
    <defs>
     <path d="M 0 1.5 
C 0.397805 1.5 0.77937 1.341951 1.06066 1.06066 
C 1.341951 0.77937 1.5 0.397805 1.5 0 
C 1.5 -0.397805 1.341951 -0.77937 1.06066 -1.06066 
C 0.77937 -1.341951 0.397805 -1.5 0 -1.5 
C -0.397805 -1.5 -0.77937 -1.341951 -1.06066 -1.06066 
C -1.341951 -0.77937 -1.5 -0.397805 -1.5 0 
C -1.5 0.397805 -1.341951 0.77937 -1.06066 1.06066 
C -0.77937 1.341951 -0.397805 1.5 0 1.5 
z
" id="m2d28426af9" style="stroke:#6f6f6f;"/>
    </defs>
    <g clip-path="url(#p6ff5971ae9)">
     <use style="fill:#ffffff;stroke:#6f6f6f;" x="99.58125" xlink:href="#m2d28426af9" y="94.546852"/>
    </g>
   </g>
   <g id="PathCollection_2">
    <g clip-path="url(#p6ff5971ae9)">
     <use style="fill:#ffffff;stroke:#6f6f6f;" x="211.18125" xlink:href="#m2d28426af9" y="97.525669"/>
    </g>
   </g>
   <g id="PathCollection_3">
    <g clip-path="url(#p6ff5971ae9)">
     <use style="fill:#ffffff;stroke:#6f6f6f;" x="322.78125" xlink:href="#m2d28426af9" y="114.428688"/>
    </g>
   </g>
  </g>
 </g>
 <defs>
  <clipPath id="p6ff5971ae9">
   <rect height="217.44" width="334.8" x="43.78125" y="7.2"/>
  </clipPath>
 </defs>
</svg>
